<svg width="16" height="16" viewBox="0 0 16 16" fill="none" xmlns="http://www.w3.org/2000/svg">
<path d="M15.8536 15.1462L8.70696 7.99694L15.8536 0.847652C16.0408 0.653852 16.0408 0.346545 15.8536 0.152684C15.6618 -0.0460005 15.3452 -0.0514958 15.1466 0.140411L7.99998 7.28969L0.853405 0.140472C0.659676 -0.0467333 0.352483 -0.0467333 0.158693 0.140472C-0.0399176 0.332379 -0.0454107 0.649029 0.146425 0.847713L7.293 7.99694L0.146425 15.1462C0.052674 15.2399 1.25036e-08 15.3671 1.25036e-08 15.4997C-6.10883e-05 15.776 0.223819 15.9999 0.499945 16C0.632577 16.0001 0.759775 15.9474 0.853405 15.8534L7.99998 8.70418L15.1466 15.8535C15.2402 15.9474 15.3675 16.0002 15.5001 16C15.6326 15.9999 15.7597 15.9473 15.8535 15.8536C16.0488 15.6583 16.0489 15.3415 15.8536 15.1462Z" fill="#858585"/>
</svg>
