<svg width="16" height="16" viewBox="0 0 16 16" fill="none" xmlns="http://www.w3.org/2000/svg">
<g clip-path="url(#clip0_317_1660)">
<path d="M15.4286 2.5H12.4864L11.2721 0.726562C10.9321 0.275844 10.4071 0 9.80714 0H6.19286C5.59286 0 5.03571 0.275844 4.72857 0.726562L3.51357 2.5H0.571429C0.254464 2.5 0 2.72281 0 3V3.5C0 3.77813 0.254464 4 0.571429 4H1.14286V14C1.14286 15.1047 2.16607 16 3.42857 16H12.5714C13.8339 16 14.8571 15.1047 14.8571 14V4H15.4286C15.7464 4 16 3.77813 16 3.5V3C16 2.72281 15.7464 2.5 15.4286 2.5ZM6.13929 1.59C6.175 1.53531 6.24643 1.5 6.32143 1.5H9.67857C9.75447 1.5 9.82589 1.53516 9.86161 1.58984L10.4857 2.5H5.51429L6.13929 1.59ZM12.5714 14.5H3.42857C3.11296 14.5 2.85714 14.2762 2.85714 14V4H13.1429V14C13.1429 14.275 12.8857 14.5 12.5714 14.5ZM8 13C8.31586 13 8.57143 12.7764 8.57143 12.5V6C8.57143 5.72363 8.31586 5.5 8 5.5C7.68414 5.5 7.42857 5.725 7.42857 6V12.5C7.42857 12.775 7.68571 13 8 13ZM5.14286 13C5.45714 13 5.71429 12.775 5.71429 12.5V6C5.71429 5.72363 5.45871 5.5 5.14286 5.5C4.827 5.5 4.57143 5.725 4.57143 6V12.5C4.57143 12.775 4.82857 13 5.14286 13ZM10.8571 13C11.173 13 11.4286 12.7764 11.4286 12.5V6C11.4286 5.72363 11.173 5.5 10.8571 5.5C10.5413 5.5 10.2857 5.725 10.2857 6V12.5C10.2857 12.775 10.5429 13 10.8571 13Z" fill="#F87272" fill-opacity="0.92"/>
</g>
<defs>
<clipPath id="clip0_317_1660">
<rect width="16" height="16" fill="white"/>
</clipPath>
</defs>
</svg>
