<svg width="16" height="16" viewBox="0 0 16 16" fill="none" xmlns="http://www.w3.org/2000/svg">
<g clip-path="url(#clip0_317_1533)">
<mask id="path-1-inside-1_317_1533" fill="white">
<path d="M8 0H1.77778C1.30628 0 0.854097 0.187301 0.520699 0.520699C0.187301 0.854097 0 1.30628 0 1.77778V14.2222C0 14.6937 0.187301 15.1459 0.520699 15.4793C0.854097 15.8127 1.30628 16 1.77778 16H14.2222C14.6937 16 15.1459 15.8127 15.4793 15.4793C15.8127 15.1459 16 14.6937 16 14.2222V8"/>
</mask>
<path d="M8 2C9.10457 2 10 1.10457 10 0C10 -1.10457 9.10457 -2 8 -2V2ZM1.77778 0V-2V0ZM0 1.77778H-2H0ZM0 14.2222H-2H0ZM18 8C18 6.89543 17.1046 6 16 6C14.8954 6 14 6.89543 14 8H18ZM8 0V-2H1.77778V0V2H8V0ZM1.77778 0V-2C0.775849 -2 -0.185044 -1.60199 -0.893515 -0.893515L0.520699 0.520699L1.93491 1.93491C1.89324 1.97659 1.83671 2 1.77778 2V0ZM0.520699 0.520699L-0.893515 -0.893515C-1.60199 -0.185044 -2 0.775849 -2 1.77778H0H2C2 1.83671 1.97659 1.89324 1.93491 1.93491L0.520699 0.520699ZM0 1.77778H-2V14.2222H0H2V1.77778H0ZM0 14.2222H-2C-2 15.2242 -1.60199 16.185 -0.893515 16.8935L0.520699 15.4793L1.93491 14.0651C1.97659 14.1068 2 14.1633 2 14.2222H0ZM0.520699 15.4793L-0.893515 16.8935C-0.185044 17.602 0.775848 18 1.77778 18V16V14C1.83672 14 1.89324 14.0234 1.93491 14.0651L0.520699 15.4793ZM1.77778 16V18H14.2222V16V14H1.77778V16ZM14.2222 16V18C15.2242 18 16.185 17.602 16.8935 16.8935L15.4793 15.4793L14.0651 14.0651C14.1068 14.0234 14.1633 14 14.2222 14V16ZM15.4793 15.4793L16.8935 16.8935C17.602 16.185 18 15.2242 18 14.2222H16H14C14 14.1633 14.0234 14.1068 14.0651 14.0651L15.4793 15.4793ZM16 14.2222H18V8H16H14V14.2222H16Z" fill="#F87272" fill-opacity="0.92" mask="url(#path-1-inside-1_317_1533)"/>
<path d="M14 1C14.2603 1 14.5114 1.09034 14.7109 1.25391L14.793 1.32812C15.0032 1.53836 15.121 1.82378 15.1211 2.12109C15.1211 2.38137 15.0307 2.63247 14.8672 2.83203L14.793 2.91406L5.48828 12.2188L3.37305 12.7471L3.90234 10.6318L13.207 1.32812C13.3911 1.14409 13.6328 1.03126 13.8896 1.00586L14 1Z" stroke="#F87272" stroke-opacity="0.92" stroke-width="2" stroke-linecap="round" stroke-linejoin="round"/>
</g>
<defs>
<clipPath id="clip0_317_1533">
<rect width="16" height="16" fill="white"/>
</clipPath>
</defs>
</svg>
