<svg width="24" height="24" viewBox="0 0 24 24" fill="none" xmlns="http://www.w3.org/2000/svg">
<g clip-path="url(#clip0_319_2423)">
<mask id="path-1-inside-1_319_2423" fill="white">
<path d="M12 0H2.66667C1.95942 0 1.28115 0.280951 0.781048 0.781048C0.280951 1.28115 0 1.95942 0 2.66667V21.3333C0 22.0406 0.280951 22.7189 0.781048 23.219C1.28115 23.719 1.95942 24 2.66667 24H21.3333C22.0406 24 22.7189 23.719 23.219 23.219C23.719 22.7189 24 22.0406 24 21.3333V12"/>
</mask>
<path d="M12 2C13.1046 2 14 1.10457 14 0C14 -1.10457 13.1046 -2 12 -2V2ZM2.66667 0V-2V0ZM0 2.66667H-2H0ZM0 21.3333H-2H0ZM26 12C26 10.8954 25.1046 10 24 10C22.8954 10 22 10.8954 22 12H26ZM12 0V-2H2.66667V0V2H12V0ZM2.66667 0V-2C1.42899 -2 0.242005 -1.50834 -0.633165 -0.633165L0.781048 0.781048L2.19526 2.19526C2.32029 2.07024 2.48986 2 2.66667 2V0ZM0.781048 0.781048L-0.633165 -0.633165C-1.50834 0.242005 -2 1.42899 -2 2.66667H0H2C2 2.48986 2.07024 2.32029 2.19526 2.19526L0.781048 0.781048ZM0 2.66667H-2V21.3333H0H2V2.66667H0ZM0 21.3333H-2C-2 22.571 -1.50833 23.758 -0.633165 24.6332L0.781048 23.219L2.19526 21.8047C2.07024 21.6797 2 21.5101 2 21.3333H0ZM0.781048 23.219L-0.633165 24.6332C0.242004 25.5083 1.42899 26 2.66667 26V24V22C2.48986 22 2.32029 21.9298 2.19526 21.8047L0.781048 23.219ZM2.66667 24V26H21.3333V24V22H2.66667V24ZM21.3333 24V26C22.571 26 23.758 25.5083 24.6332 24.6332L23.219 23.219L21.8047 21.8047C21.6797 21.9298 21.5101 22 21.3333 22V24ZM23.219 23.219L24.6332 24.6332C25.5083 23.758 26 22.571 26 21.3333H24H22C22 21.5101 21.9298 21.6797 21.8047 21.8047L23.219 23.219ZM24 21.3333H26V12H24H22V21.3333H24Z" fill="#F87272" fill-opacity="0.92" mask="url(#path-1-inside-1_319_2423)"/>
<path d="M22 1C22.2603 1 22.5114 1.09034 22.7109 1.25391L22.793 1.32812C23.0032 1.53836 23.121 1.82378 23.1211 2.12109C23.1211 2.38137 23.0307 2.63247 22.8672 2.83203L22.793 2.91406L13.4883 12.2188L11.373 12.7471L11.9023 10.6318L21.207 1.32812C21.3911 1.14409 21.6328 1.03126 21.8896 1.00586L22 1Z" stroke="#F87272" stroke-opacity="0.92" stroke-width="2" stroke-linecap="round" stroke-linejoin="round"/>
</g>
<defs>
<clipPath id="clip0_319_2423">
<rect width="24" height="24" fill="white"/>
</clipPath>
</defs>
</svg>
